<?xml version="1.0" encoding="UTF-8" standalone="no"?>
<!-- Created with Inkscape (http://www.inkscape.org/) -->

<svg
   width="40.19342mm"
   height="40.19342mm"
   viewBox="0 0 40.19342 40.19342"
   version="1.1"
   id="svg1"
   xml:space="preserve"
   inkscape:version="1.4.1 (93de688d07, 2025-03-30)"
   sodipodi:docname="logo.svg"
   xmlns:inkscape="http://www.inkscape.org/namespaces/inkscape"
   xmlns:sodipodi="http://sodipodi.sourceforge.net/DTD/sodipodi-0.dtd"
   xmlns:xlink="http://www.w3.org/1999/xlink"
   xmlns="http://www.w3.org/2000/svg"
   xmlns:svg="http://www.w3.org/2000/svg"><sodipodi:namedview
     id="namedview1"
     pagecolor="#cf0000"
     bordercolor="#000000"
     borderopacity="0.25"
     inkscape:showpageshadow="2"
     inkscape:pageopacity="0.0"
     inkscape:pagecheckerboard="0"
     inkscape:deskcolor="#d1d1d1"
     inkscape:document-units="mm"
     inkscape:zoom="0.51031088"
     inkscape:cx="32.333232"
     inkscape:cy="109.73703"
     inkscape:window-width="1920"
     inkscape:window-height="1002"
     inkscape:window-x="0"
     inkscape:window-y="0"
     inkscape:window-maximized="1"
     inkscape:current-layer="layer1" /><defs
     id="defs1" /><g
     inkscape:label="Layer 1"
     inkscape:groupmode="layer"
     id="layer1"
     transform="translate(-106.51256,-79.382004)"><circle
       style="fill:#ffffff;stroke-width:0.25813"
       id="path12"
       cx="126.60927"
       cy="99.478714"
       r="20.09671" /><path
       style="fill:#1a1a1a;stroke-width:0.0489873"
       d=""
       id="path4"
       transform="scale(0.26458333)" /><g
       id="g12"
       transform="translate(14.567182,0.21403588)"><g
         id="g8"><path
           style="fill:#000000"
           d="m 111.66355,115.2584 c -0.4778,-0.21001 -3.78877,-4.12706 -6.12653,-7.24803 -5.39962,-7.20862 -6.728447,-11.096628 -5.41124,-15.832671 3.04172,-10.936575 18.21459,-12.21472 23.08861,-1.944958 2.74256,5.778681 1.00933,10.970559 -6.88163,20.613959 -3.35534,4.10051 -3.99727,4.70703 -4.66921,4.4117 z m 1.46176,-3.7532 c 7.52613,-8.76598 9.965,-13.703818 8.99036,-18.202304 -2.33048,-10.756517 -17.65576,-10.750145 -20.15739,0.0084 -0.96569,4.153036 1.06513,8.547274 7.67365,16.604084 2.62622,3.20176 2.25463,3.03265 3.49338,1.58983 z m -6.80165,-10.34548 c -0.84415,-0.38334 -0.83374,-0.32761 -0.86198,-4.615008 -0.0349,-5.294724 -0.0712,-5.213679 2.33382,-5.213679 1.26863,0 1.37432,-0.03407 1.37432,-0.442986 0,-1.058666 0.32809,-1.203993 2.7795,-1.231182 2.55481,-0.02834 2.82395,0.07182 2.95456,1.099442 0.0728,0.572443 0.0783,0.574726 1.39103,0.574726 2.41261,0 2.37528,-0.08315 2.34039,5.213679 -0.0282,4.287398 -0.0178,4.231668 -0.86198,4.615008 -0.53898,0.24476 -10.91068,0.24476 -11.44966,0 z m 6.86783,-1.421578 c 2.62179,-0.83539 3.37442,-4.34333 1.33272,-6.211651 -1.82574,-1.670701 -4.6571,-1.134975 -5.75578,1.089061 -1.4277,2.89008 1.3464,6.102908 4.42306,5.12259 z m -1.82803,-1.34197 c -0.89896,-0.27692 -1.55374,-1.18806 -1.54774,-2.15371 0.0131,-2.104951 2.47405,-3.047914 3.90448,-1.496077 1.54487,1.675987 -0.16551,4.324787 -2.35674,3.649787 z"
           id="path8"
           sodipodi:nodetypes="ssssssssssssssssscscssssssssss" /></g><path
         style="fill:#ffffff;stroke-width:0.250224"
         sodipodi:type="inkscape:offset"
         inkscape:radius="0.043739203"
         inkscape:original="M 112.03125 85.279297 C 110.42185 85.291605 108.81084 85.66643 107.33789 86.400391 C 104.65492 87.737296 102.84264 90.044849 102.03906 93.150391 C 101.87787 93.773432 101.83709 94.09363 101.80859 94.914062 C 101.7689 96.0583 101.83663 96.668584 102.12695 97.771484 C 102.87705 100.621 104.93833 104.00075 109.04883 109.12109 C 110.85564 111.37179 111.50831 112.1375 111.77734 112.32031 C 112.05833 112.51124 112.0067 112.50015 112.21289 112.40625 C 112.47418 112.2872 115.53657 108.61028 117.0293 106.62305 C 122.2974 99.60976 123.41775 95.349889 121.19336 90.800781 C 120.21424 88.798398 118.71312 87.298231 116.71484 86.328125 C 115.24928 85.61664 113.64065 85.266989 112.03125 85.279297 z M 112.49023 89.654297 C 114.64863 89.684131 114.72604 89.716602 114.92383 90.660156 C 114.9759 90.908571 115.05185 91.14557 115.09375 91.1875 C 115.14318 91.237002 115.61585 91.275568 116.44141 91.298828 C 118.6702 91.361648 118.61415 91.254652 118.65625 95.5 C 118.67215 97.098864 118.65383 98.806428 118.61523 99.394531 C 118.50292 101.10764 118.41343 101.19295 116.61133 101.29297 L 116.61133 101.29492 C 115.27791 101.36882 108.68945 101.36446 107.30273 101.28906 C 105.79251 101.20692 105.60081 101.03568 105.49414 99.658203 C 105.41154 98.587776 105.4159 93.442605 105.5 92.751953 C 105.58729 92.035078 105.77307 91.653204 106.12695 91.46875 C 106.35893 91.347825 106.5452 91.326725 107.65625 91.296875 C 109.10863 91.257857 109.13851 91.247638 109.13867 90.775391 C 109.1388 90.390854 109.31071 90.045727 109.57617 89.892578 C 109.91499 89.697117 110.73408 89.630037 112.49023 89.654297 z "
         xlink:href="#path9"
         id="path11"
         inkscape:href="#path9"
         d="m 112.03125,85.236328 c -1.61597,0.01236 -3.23387,0.388012 -4.71289,1.125 -2.69392,1.342359 -4.51601,3.661449 -5.32227,6.777344 -0.16165,0.624827 -0.20193,0.951953 -0.23046,1.773437 -0.0398,1.1465 0.0275,1.765972 0.31835,2.871094 0.75296,2.860357 2.81973,6.243137 6.93165,11.365237 0.90349,1.12546 1.51813,1.8806 1.9414,2.37695 0.42327,0.49635 0.65053,0.73391 0.79492,0.83203 0.13979,0.095 0.19628,0.14311 0.26368,0.15625 0.0337,0.007 0.0656,-0.001 0.0977,-0.0137 0.0321,-0.0127 0.0666,-0.0316 0.11719,-0.0547 0.0283,-0.0129 0.0535,-0.0353 0.0918,-0.0703 0.0383,-0.035 0.0864,-0.0804 0.14257,-0.13867 0.11243,-0.11661 0.25977,-0.27809 0.4336,-0.47461 0.34764,-0.39305 0.80231,-0.92609 1.29492,-1.51758 0.98523,-1.18297 2.12388,-2.60096 2.87109,-3.5957 2.63571,-3.50886 4.23552,-6.33036 4.89844,-8.849612 0.66292,-2.519256 0.38537,-4.735581 -0.73047,-7.017578 -0.98308,-2.010487 -2.49157,-3.518103 -4.49804,-4.492188 -1.47181,-0.714517 -3.08717,-1.065092 -4.70313,-1.052734 z m -0.68945,4.460938 c 0.3284,-0.0059 0.70972,-0.0061 1.14843,0 1.07899,0.01491 1.63748,0.03495 1.93555,0.158203 0.14904,0.06163 0.23376,0.144619 0.29883,0.273437 0.0651,0.128819 0.10691,0.305639 0.15625,0.541016 0.0263,0.125653 0.0585,0.248309 0.0898,0.345703 0.0157,0.0487 0.0322,0.09103 0.0469,0.125 0.0147,0.03397 0.0246,0.05774 0.0449,0.07813 0.0175,0.01752 0.0345,0.0226 0.0566,0.0293 0.0221,0.0067 0.0489,0.01192 0.082,0.01758 0.0664,0.01132 0.157,0.02182 0.27149,0.03125 0.22897,0.01885 0.55357,0.03328 0.96679,0.04492 0.55755,0.01572 0.97189,0.02234 1.27344,0.08594 0.30155,0.0636 0.48797,0.178768 0.61719,0.423828 0.25843,0.490122 0.26215,1.525575 0.2832,3.648438 0.0159,1.59822 -0.003,3.309094 -0.041,3.892578 -0.0281,0.427923 -0.056,0.752122 -0.10743,0.998052 -0.0514,0.24592 -0.12577,0.40951 -0.24804,0.52539 -0.12228,0.11587 -0.29724,0.18826 -0.55664,0.23632 -0.25941,0.0481 -0.60058,0.0727 -1.05078,0.0977 a 0.04374358,0.04374358 0 0 0 0,0.002 c -3.6e-4,2e-5 -0.002,-2e-5 -0.002,0 -1.32785,0.0734 -7.92379,0.0691 -9.30273,-0.006 -0.75357,-0.041 -1.16761,-0.10688 -1.40235,-0.31836 -0.23473,-0.21147 -0.31204,-0.58657 -0.36523,-1.273433 -0.0409,-0.529795 -0.0599,-2.085773 -0.0586,-3.591797 6.3e-4,-0.753012 0.007,-1.494015 0.0176,-2.089844 0.0109,-0.595829 0.0266,-1.048604 0.0469,-1.214844 0.0433,-0.355666 0.11066,-0.626681 0.20898,-0.828125 0.0983,-0.201443 0.22578,-0.333916 0.39453,-0.421875 0.11266,-0.05873 0.20865,-0.09147 0.41993,-0.115234 0.21127,-0.02376 0.53648,-0.03781 1.09179,-0.05273 0.72629,-0.01951 1.09451,-0.02778 1.29883,-0.09961 0.10216,-0.03592 0.16562,-0.09473 0.19531,-0.173828 0.0297,-0.07909 0.0293,-0.172492 0.0293,-0.291015 1.3e-4,-0.37151 0.16811,-0.702684 0.41602,-0.845704 0.15807,-0.09119 0.44415,-0.157354 0.9082,-0.195312 0.23202,-0.01898 0.50753,-0.03119 0.83594,-0.03711 z" /><path
         style="fill:#ffffff;stroke-width:0.0662051"
         d="m 111.77731,112.31985 c -0.26903,-0.18281 -0.92243,-0.94879 -2.72924,-3.19949 -4.1105,-5.12034 -6.17145,-8.49966 -6.92155,-11.349173 -0.29032,-1.1029 -0.3583,-1.712357 -0.31861,-2.856595 0.0285,-0.820433 0.0706,-1.140891 0.23179,-1.763932 0.80358,-3.105542 2.61543,-5.414148 5.2984,-6.751053 2.9459,-1.467922 6.44498,-1.494679 9.37611,-0.07171 1.99828,0.970106 3.50074,2.470092 4.47986,4.472475 2.22439,4.549108 1.10281,8.809751 -4.16529,15.823038 -1.49273,1.98723 -4.55467,5.6641 -4.81596,5.78315 -0.20619,0.0939 -0.15452,0.10423 -0.43551,-0.0867 z m 4.8334,-11.02605 c 1.8021,-0.10002 1.89267,-0.18579 2.00498,-1.898902 0.0386,-0.588103 0.0563,-2.295091 0.0404,-3.893955 -0.0421,-4.245348 0.0142,-4.13848 -2.21459,-4.2013 -0.82556,-0.02326 -1.29794,-0.06256 -1.34737,-0.112062 -0.0419,-0.04193 -0.11871,-0.279479 -0.17078,-0.527894 -0.19779,-0.943554 -0.27551,-0.975662 -2.43391,-1.005496 -1.75615,-0.02426 -2.57495,0.04264 -2.91377,0.238101 -0.26546,0.153149 -0.43624,0.498888 -0.43637,0.883425 -1.6e-4,0.472247 -0.0308,0.483048 -1.48318,0.522066 -1.11105,0.02985 -1.29647,0.05066 -1.52845,0.171585 -0.35388,0.184454 -0.54036,0.565449 -0.62765,1.282324 -0.0841,0.690652 -0.0876,5.83583 -0.005,6.906257 0.10667,1.377481 0.29652,1.548861 1.80674,1.631001 1.38672,0.0754 7.97525,0.0789 9.30867,0.005 z"
         id="path9" /><path
         id="path10"
         style="fill:#ffffff;stroke-width:0.250224"
         sodipodi:type="inkscape:offset"
         inkscape:radius="0.23161419"
         inkscape:original="M 423.50391 350.00195 C 419.43508 350.00247 416.33316 351.39708 413.44531 354.52539 C 410.09856 358.15083 408.93097 363.44188 410.48438 367.93555 C 412.15691 372.77382 416.46392 376.50224 421.31445 377.31055 C 423.27064 377.63656 424.19859 377.61769 426.10938 377.21289 C 432.62939 375.83163 437.02167 370.42104 437.01367 363.78125 C 437.00866 359.84075 435.9702 357.10847 433.45703 354.42188 C 430.64235 351.41299 427.46226 350.00145 423.50391 350.00195 z M 423.37891 355.20312 C 425.34785 355.19476 425.81064 355.28066 427.05273 355.89062 C 428.94002 356.81742 431.06303 359.11125 431.66797 360.875 C 433.13377 365.14867 430.80427 370.25123 426.68359 371.79297 C 423.47706 372.99269 419.90855 372.2799 417.62305 369.98242 C 415.63337 367.98229 415.128 366.71165 415.125 363.70117 C 415.12265 361.66047 415.22114 360.98346 415.66211 360.0293 C 416.42785 358.37242 417.98964 356.78113 419.67773 355.9375 C 420.94668 355.30332 421.40661 355.21112 423.37891 355.20312 z "
         d="m 423.50391,349.76953 c -4.12174,5.3e-4 -7.30787,1.43577 -10.22852,4.59961 -3.40472,3.68824 -4.59323,9.06198 -3.00977,13.64258 1.70065,4.91959 6.06921,8.7037 11.01172,9.52734 1.96934,0.3282 2.95663,0.30804 4.88086,-0.0996 6.61935,-1.4023 11.09602,-6.91612 11.08789,-13.6582 -0.005,-3.98106 -1.07419,-6.79702 -3.61914,-9.51758 -2.84945,-3.04606 -6.10962,-4.49465 -10.12304,-4.49414 z m -0.125,5.66602 a 0.23163735,0.23163735 0 0 0 0.002,0 c 1.96205,-0.008 2.34093,0.0584 3.57031,0.66211 1.81325,0.89044 3.92707,3.18682 4.49805,4.85156 1.42301,4.14892 -0.85723,9.13395 -4.84766,10.62695 -3.1255,1.16941 -6.59707,0.47119 -8.81445,-1.75781 -1.96892,-1.97926 -2.42671,-3.13256 -2.42969,-6.11719 -0.002,-2.03319 0.0867,-2.64601 0.51563,-3.57422 0.73912,-1.59927 2.27319,-3.16532 3.9082,-3.98242 1.25696,-0.62819 1.63243,-0.70101 3.59766,-0.70898 z"
         transform="scale(0.26458333)" /></g></g></svg>
